<svg width="120" height="120" viewBox="0 0 120 120" fill="none" xmlns="http://www.w3.org/2000/svg">
<path d="M76.4 65.74C76.364 67.172 75.196 68.316 73.76 68.316C73.74 68.316 73.72 68.316 73.704 68.316H64.684C64.668 68.316 64.648 68.316 64.628 68.316C63.192 68.316 62.024 67.168 61.988 65.74V46.64C62.024 45.08 63.292 43.828 64.86 43.828C66.428 43.828 67.696 45.08 67.732 46.636V63.156H73.708C73.724 63.156 73.744 63.156 73.764 63.156C75.2 63.156 76.368 64.304 76.404 65.732L76.4 65.74ZM46.884 58.824L49.692 50.844L52.5 58.824H46.884ZM53.44 46.612C52.936 44.992 51.448 43.836 49.692 43.836C47.936 43.836 46.452 44.992 45.952 46.584L45.944 46.612L39.22 64.316C38.368 66.968 39.112 67.952 39.888 68.308C40.412 68.552 41.024 68.696 41.668 68.696C41.672 68.696 41.672 68.696 41.676 68.696C41.76 68.708 41.86 68.712 41.96 68.712C42.852 68.712 43.624 68.208 44.008 67.468L44.016 67.456L45.408 63.808H53.98L55.372 67.452C55.764 68.204 56.536 68.712 57.428 68.712C57.528 68.712 57.628 68.704 57.724 68.692H57.712C58.36 68.692 58.976 68.548 59.524 68.296L59.496 68.308C60.272 67.952 61.016 66.968 60.16 64.308L53.44 46.612ZM95.176 64.116C95.52 64.576 95.728 65.16 95.728 65.788C95.728 67.34 94.468 68.6 92.916 68.6C92.012 68.6 91.208 68.172 90.692 67.508L90.688 67.5L84.092 58.764L83.116 59.74V65.876C83.096 67.412 81.844 68.652 80.304 68.652C78.764 68.652 77.512 67.416 77.492 65.88V46.644C77.492 45.092 78.752 43.832 80.304 43.832C81.856 43.832 83.116 45.092 83.116 46.644V52.688L90.96 44.844C91.352 44.456 91.896 44.22 92.492 44.22C92.504 44.22 92.512 44.22 92.524 44.22C93.98 44.26 95.164 45.392 95.284 46.824V46.836C95.288 46.888 95.292 46.952 95.292 47.012C95.292 47.608 95.052 48.152 94.664 48.548L88.256 54.956L95.176 64.116ZM40.252 49.34H35.864V66.044C35.792 67.544 34.56 68.728 33.052 68.728C31.544 68.728 30.312 67.54 30.24 66.048V66.04V49.336H25.852C24.332 49.336 23.1 48.104 23.1 46.584C23.1 45.064 24.332 43.832 25.852 43.832H40.248C41.768 43.832 43 45.064 43 46.584C43 48.104 41.768 49.336 40.248 49.336L40.252 49.34ZM60 93.74C59.988 93.74 59.976 93.74 59.96 93.74C56.92 93.74 53.932 93.52 51.012 93.096L51.344 93.136C48.532 95.116 32.284 106.532 30.752 106.744C30.604 106.8 30.432 106.832 30.252 106.832C30.012 106.832 29.78 106.772 29.58 106.668L29.588 106.672C29.052 106.356 29.152 105.532 29.152 105.532C29.312 104.432 33.364 90.444 34.112 87.872C21.14 82.292 12.06 69.952 11.272 55.408L11.268 55.312C11.268 34.088 33.088 16.884 60.004 16.884C86.92 16.884 108.74 34.088 108.74 55.312C108.74 76.536 86.916 93.74 60 93.74ZM110.612 0.0159912H9.39202C4.21602 0.0159912 0.0200195 4.21199 0.0200195 9.38799V110.608C0.0200195 115.784 4.21602 119.98 9.39202 119.98H110.612C115.788 119.98 119.984 115.784 119.984 110.608V9.38799C119.984 4.21199 115.788 0.0159912 110.612 0.0159912Z" fill="#CCCCCC"/>
</svg>
